<?xml version="1.0" encoding="iso-8859-1"?>
<!-- Generator: Adobe Illustrator 19.0.0, SVG Export Plug-In . SVG Version: 6.00 Build 0)  -->
<svg version="1.1" id="Layer_1" xmlns="http://www.w3.org/2000/svg" xmlns:xlink="http://www.w3.org/1999/xlink" x="0px" y="0px"
	 viewBox="0 0 511.998 511.998" style="enable-background:new 0 0 511.998 511.998;" xml:space="preserve">
<g>
	<g>
		<path d="M422.431,120.394h-62.825l-0.844-15.472c9.919-8.583,15.561-20.866,15.561-34.079c0-23.739-18.436-43.253-41.743-44.975
			c-7.958-13.939-22.722-22.655-39.125-22.655c-11.825,0-23.174,4.716-31.539,12.88c-5.898-2.077-12.075-3.127-18.439-3.127
			c-8.178,0-16.135,1.763-23.433,5.155C211.64,6.881,198.298,0,183.912,0c-9.871,0-19.263,3.154-27.02,8.982
			c-6.206-2.325-12.727-3.499-19.462-3.499c-17.517,0-33.568,7.966-44.082,21.595c-1.96-0.26-3.935-0.39-5.913-0.39
			c-24.868,0-45.1,20.231-45.1,45.1c0,10.481,3.555,20.415,10.088,28.429l-2.001,36.698c-4.099,0.712-7.274,4.177-7.486,8.468
			l-2.148,43.878c-0.121,2.474,0.777,4.891,2.486,6.685c1.06,1.112,2.373,1.923,3.808,2.38l-8.501,156.229H36.61
			c-4.828,0-8.805,3.787-9.041,8.609l-2.148,43.878c-0.121,2.474,0.777,4.891,2.486,6.685c1.709,1.795,4.078,2.81,6.556,2.81h0.74
			l-1.219,22.444h-5.182c-4.999,0-9.052,4.053-9.052,9.052v54.911c0,4.999,4.053,9.052,9.052,9.052H58.06
			c4.999,0,9.052-4.053,9.052-9.052s-4.053-9.052-9.052-9.052H37.853v-36.807h335.221v36.807H91.854
			c-4.999,0-9.052,4.053-9.052,9.052s4.053,9.052,9.052,9.052h290.272c4.999,0,9.052-4.053,9.052-9.052v-54.911
			c0-4.999-4.053-9.052-9.052-9.052h-5.18l-0.885-16.292c0.135,0.006,0.269,0.021,0.406,0.021h45.965
			c38.497,0,69.816-31.32,69.816-69.817V190.211C492.247,151.714,460.928,120.394,422.431,120.394z M87.433,44.793
			c2.52,0,5.034,0.355,7.474,1.056c3.932,1.131,8.136-0.519,10.252-4.023c6.892-11.42,18.955-18.238,32.271-18.238
			c5.958,0,11.667,1.36,16.968,4.042c3.481,1.762,7.705,1.094,10.473-1.662c5.095-5.072,11.857-7.865,19.042-7.865
			c10.623,0,20.295,6.273,24.643,15.979c1.102,2.46,3.244,4.302,5.842,5.022c2.597,0.721,5.382,0.246,7.594-1.295
			c6.331-4.409,13.759-6.74,21.486-6.74c5.92,0,11.594,1.343,16.869,3.991c3.942,1.981,8.738,0.83,11.354-2.724
			c5.154-7.003,13.084-11.02,21.757-11.02c11.081,0,20.914,6.648,25.051,16.936c1.457,3.623,5.075,5.902,8.971,5.658
			c0.578-0.037,1.159-0.064,1.746-0.064c14.886,0,26.995,12.11,26.995,26.995c0,7.426-2.982,14.361-8.264,19.436H67.803
			c-4.741-5.027-7.365-11.552-7.365-18.492C60.438,56.904,72.549,44.793,87.433,44.793z M342.368,136.775h-25.14l-1.084-28.39
			h24.675L342.368,136.775z M299.11,136.775h-39.714l-0.479-28.39h39.109L299.11,136.775z M241.289,136.775h-71.652l0.479-28.39
			h70.693L241.289,136.775z M152.009,108.385l-0.479,28.39h-39.713l1.083-28.39H152.009z M94.783,108.385l-1.084,28.39h-25.14
			l1.549-28.39H94.783z M60.596,154.88h289.733l1.261,25.774H59.335L60.596,154.88z M158.478,262.947
			c-0.052-0.001-0.103-0.001-0.155-0.001c-4.928,0-8.965,3.953-9.049,8.9l-1.389,82.714h-44.408l5.958-155.8h41.067l-0.681,40.507
			c-0.083,4.999,3.9,9.119,8.899,9.203c0.052,0.001,0.103,0.001,0.154,0.001c4.928,0,8.965-3.953,9.049-8.9l0.686-40.811h73.71
			l2.617,155.8h-78.943l1.384-82.409C167.46,267.151,163.477,263.031,158.478,262.947z M65.188,198.758h26.128l-5.958,155.8H56.711
			L65.188,198.758z M82.125,438.984H52.113l1.218-22.442h29.655L82.125,438.984z M146.472,438.984h-46.227l0.862-22.442h45.739
			L146.472,438.984z M164.579,438.984l0.374-22.442h81.021l0.374,22.442H164.579z M264.455,438.984l-0.374-22.442h45.739
			l0.862,22.442H264.455z M328.8,438.984l-0.862-22.442h29.656l1.219,22.442H328.8z M43.968,398.436l1.261-25.774h223.245
			c4.999,0,9.052-4.053,9.052-9.052s-4.053-9.052-9.052-9.052h-5.431l-2.617-155.8h41.066l3.511,91.796
			c0.187,4.879,4.199,8.706,9.04,8.706c0.117,0,0.234-0.002,0.352-0.006c4.996-0.191,8.891-4.396,8.7-9.391l-3.484-91.104h26.128
			l8.478,155.8h-28.649l-1.325-34.657c-0.191-4.996-4.386-8.891-9.391-8.7c-4.996,0.191-8.891,4.396-8.7,9.391l1.299,33.965h-9.204
			c-4.999,0-9.052,4.053-9.052,9.052c0,4.999,4.053,9.052,9.052,9.052h67.453l1.261,25.774H43.968z M372.246,352.709l-8.4-154.381
			c1.435-0.457,2.748-1.269,3.808-2.38c1.446-1.518,2.303-3.482,2.462-5.55h52.128v162.311H372.246z M422.431,404.609h-37.043
			l-1.655-33.795h38.697c9.88,0,17.917-8.037,17.917-17.917V190.211c0-9.879-8.037-17.917-17.917-17.917h-53.122l-1.317-26.909
			c-0.14-2.847-1.59-5.326-3.743-6.886h58.183c28.515,0,51.711,23.198,51.711,51.713v162.685h0
			C474.142,381.411,450.944,404.609,422.431,404.609z"/>
	</g>
</g>
<g>
</g>
<g>
</g>
<g>
</g>
<g>
</g>
<g>
</g>
<g>
</g>
<g>
</g>
<g>
</g>
<g>
</g>
<g>
</g>
<g>
</g>
<g>
</g>
<g>
</g>
<g>
</g>
<g>
</g>
</svg>
