<?xml version="1.0" encoding="iso-8859-1"?>
<!-- Generator: Adobe Illustrator 19.0.0, SVG Export Plug-In . SVG Version: 6.00 Build 0)  -->
<svg  version="1.1" id="Layer_1" xmlns="http://www.w3.org/2000/svg" xmlns:xlink="http://www.w3.org/1999/xlink" x="0px" y="0px"
	 viewBox="0 0 512.004 512.004" style="enable-background:new 0 0 512.004 512.004;" xml:space="preserve">
<g>
	<g>
		<path d="M354.208,219.9c-1.51-4.984-6.775-7.802-11.757-6.29l-30.071,9.109c-4.985,1.51-7.801,6.774-6.291,11.757
			c1.233,4.072,4.974,6.698,9.021,6.698c0.905,0,1.825-0.131,2.737-0.407l1.647-0.499c0.622,4.605,4.559,8.158,9.334,8.158
			c5.207,0,9.429-4.222,9.429-9.429c0-1.48-0.351-2.875-0.958-4.122l10.62-3.217C352.902,230.148,355.718,224.884,354.208,219.9z"/>
	</g>
</g>
<g>
	<g>
		<path d="M221.393,191.525l-57.177-9.108c-5.143-0.82-9.976,2.687-10.794,7.829c-0.82,5.142,2.685,9.976,7.829,10.794l57.177,9.108
			c0.503,0.08,1.002,0.118,1.495,0.118c4.554,0,8.562-3.306,9.3-7.947C230.041,197.178,226.536,192.344,221.393,191.525z"/>
	</g>
</g>
<g>
	<g>
		<path d="M354.495,190.245c-0.818-5.142-5.65-8.647-10.794-7.829l-57.178,9.108c-5.143,0.82-8.648,5.652-7.829,10.794
			c0.739,4.64,4.745,7.947,9.3,7.947c0.493,0,0.992-0.039,1.494-0.118l57.178-9.108C351.81,200.221,355.315,195.387,354.495,190.245
			z"/>
	</g>
</g>
<g>
	<g>
		<path d="M458.659,238.96c0-29.274-14.608-52.971-34.537-58.299v-12.533C424.122,75.435,348.713,0.014,255.995,0
			C163.297,0.013,87.88,75.434,87.88,168.127v12.533c-19.928,5.329-34.536,29.024-34.536,58.298
			c0,29.727,15.065,53.691,35.466,58.522v24.089c0,9.23,2.25,17.94,6.208,25.632c-3.62,1.318-6.208,4.779-6.208,8.853v29.695
			c0,15.172,6.051,28.95,15.855,39.074H87.693c-5.209,0-9.429,4.222-9.429,9.429v33.09c0,5.207,4.22,9.429,9.429,9.429h3.001
			l-11.333,21.383c-1.548,2.923-1.452,6.443,0.253,9.277c1.705,2.834,4.771,4.568,8.079,4.568h67.877
			c3.308,0,6.373-1.732,8.079-4.568c1.706-2.834,1.802-6.355,0.253-9.277l-11.333-21.383h3.001c5.209,0,9.429-4.222,9.429-9.429
			v-33.09c0-5.207-4.22-9.429-9.429-9.429h-1.106v-21.976c0-9.063-2.147-17.797-6.179-25.643c0.969-0.357,1.866-0.861,2.655-1.496
			c21.698,24.689,48.197,45.167,77.629,59.832c8.48,4.225,17.968,6.458,27.439,6.458s18.959-2.233,27.439-6.458
			c10.71-5.337,21.126-11.48,30.959-18.26c4.287-2.957,5.366-8.828,2.409-13.115c-2.957-4.288-8.827-5.367-13.115-2.41
			c-9.102,6.277-18.746,11.965-28.663,16.906c-5.883,2.931-12.461,4.479-19.029,4.479s-13.147-1.549-19.029-4.479
			c-33.185-16.535-62.357-41.041-84.356-70.868c-12.87-17.451-23.257-36.585-30.881-56.898c-1.082-2.858-2.141-5.846-3.144-8.881
			c-3.876-11.736-6.807-23.712-8.787-35.844l12.115-2.568c5.094-1.08,8.349-6.085,7.268-11.18c-1.08-5.094-6.087-8.349-11.18-7.268
			l-10.498,2.225c-0.311-3.816-0.519-7.643-0.644-11.477l13.374-2.801c5.097-1.067,8.362-6.065,7.296-11.162
			c-1.069-5.097-6.067-8.36-11.163-7.296l-9.642,2.019v-10.689c41.795-3.95,80.513-22.617,109.831-53.155
			c17.925-18.67,31.262-40.681,39.438-64.564c8.173,23.883,21.508,45.895,39.431,64.563c29.317,30.538,68.032,49.206,109.825,53.156
			v10.689l-9.64-2.019c-5.096-1.065-10.094,2.199-11.162,7.296s2.199,10.094,7.297,11.162l13.37,2.801
			c-0.123,3.836-0.333,7.663-0.642,11.478l-10.495-2.225c-5.091-1.08-10.099,2.174-11.18,7.268c-1.08,5.094,2.174,10.1,7.268,11.18
			l12.112,2.567c-1.98,12.132-4.909,24.107-8.784,35.841c-0.998,3.014-2.057,6.004-3.159,8.917
			c-5.347,14.261-12.133,28.079-20.168,41.063c-3.363,5.425-6.96,10.734-10.704,15.794c-8.906,12.087-19.019,23.363-30.057,33.517
			c-3.833,3.525-4.082,9.489-0.557,13.323c3.526,3.832,9.491,4.082,13.324,0.557c6.664-6.129,13.002-12.65,18.986-19.474
			c0.787,0.635,1.681,1.138,2.646,1.495c-4.032,7.845-6.179,16.581-6.179,25.648v21.976h-1.106c-5.209,0-9.429,4.222-9.429,9.429
			v33.09c0,5.207,4.22,9.429,9.429,9.429h3.001l-11.333,21.383c-1.548,2.923-1.453,6.443,0.253,9.277
			c1.705,2.834,4.771,4.567,8.079,4.567h67.877c3.308,0,6.373-1.732,8.079-4.567c1.706-2.834,1.802-6.355,0.253-9.277
			l-11.333-21.383h3.001c5.209,0,9.429-4.222,9.429-9.429v-33.09c0-5.207-4.22-9.429-9.429-9.429H407.34
			c9.802-10.124,15.855-23.902,15.855-39.074v-29.695c0-4.075-2.589-7.534-6.208-8.852c3.958-7.693,6.208-16.402,6.208-25.632
			v-24.093h-0.001C443.594,292.65,458.659,268.686,458.659,238.96z M96.431,279.529c-13.132,0.001-24.227-18.578-24.227-40.569
			c0-16.98,6.617-31.917,15.677-37.847v7.157c0,24.145,3.425,48.036,10.173,71.151C97.514,279.486,96.974,279.529,96.431,279.529z
			 M103.362,493.143l8.675-16.369h19.189l8.676,16.369H103.362z M107.669,306.509c7.391,17.622,16.771,34.348,27.937,49.891v1.33
			c-16.055-4.189-27.937-18.812-27.937-36.159V306.509z M107.669,366.68c6.368,1.649,12.211,4.972,16.989,9.743
			c7.059,7.069,10.948,16.454,10.948,26.427v19.062c-16.055-4.189-27.937-18.812-27.937-36.16V366.68z M146.141,443.684v14.232
			H97.122v-14.232H146.141z M202.968,119.758c-25.746,26.816-59.611,43.373-96.216,47.256c0.45-61.152,37.86-113.677,90.969-136.293
			c-6.608,37.093-31.975,68.607-67.578,82.536c-4.849,1.897-7.243,7.367-5.346,12.216c1.456,3.721,5.015,5.996,8.783,5.996
			c1.143,0,2.304-0.21,3.432-0.651c44.984-17.6,76.037-59.115,80.663-106.956c9.249-2.46,18.849-4.051,28.706-4.683
			C244.527,56.893,229.278,92.355,202.968,119.758z M309.043,119.758c-26.307-27.402-41.555-62.864-43.412-100.58
			c9.854,0.631,19.452,2.22,28.7,4.679c2.669,27.552,14.18,53.645,32.852,74.099c1.859,2.038,4.409,3.071,6.966,3.071
			c2.271,0,4.546-0.815,6.355-2.465c3.846-3.511,4.117-9.476,0.606-13.321c-13.95-15.281-23.221-34.258-26.835-54.532
			c38.128,16.233,68.166,47.891,82.248,87.09c-9.867-2.321-19.327-5.967-28.236-10.967c-4.54-2.547-10.29-0.933-12.837,3.608
			c-2.548,4.541-0.933,10.289,3.607,12.837c13.452,7.55,27.948,12.531,43.178,14.851c1.914,9.341,2.942,19,3.015,28.882
			C368.648,163.13,334.787,146.575,309.043,119.758z M376.411,356.415c3.371-4.682,6.63-9.536,9.704-14.494
			c6.994-11.3,13.093-23.188,18.22-35.419v15.07c0,17.346-11.877,31.968-27.924,36.159V356.415z M376.398,402.85
			c0-9.972,3.889-19.357,10.937-26.418c4.785-4.777,10.631-8.101,17-9.752v19.072c0,17.347-11.882,31.971-27.937,36.16V402.85z
			 M372.104,493.143l8.676-16.369h19.188l8.676,16.369H372.104z M414.883,443.684v14.232h-49.019v-14.232H414.883z M415.573,279.53
			c-0.542,0-1.082-0.043-1.623-0.108c6.746-23.115,10.172-47.006,10.172-71.151v-7.159c9.061,5.929,15.679,20.866,15.679,37.847
			C439.801,260.951,428.706,279.53,415.573,279.53z"/>
	</g>
</g>
<g>
	<g>
		<path d="M282.933,327.885h-53.859c-5.209,0-9.429,4.222-9.429,9.429c0,5.207,4.22,9.429,9.429,9.429h53.859
			c5.209,0,9.429-4.222,9.429-9.429C292.362,332.107,288.142,327.885,282.933,327.885z"/>
	</g>
</g>
<g>
	<g>
		<path d="M264.729,267.294h-24.235c-5.209,0-9.429,4.222-9.429,9.429s4.22,9.429,9.429,9.429h24.235
			c5.209,0,9.429-4.222,9.429-9.429S269.937,267.294,264.729,267.294z"/>
	</g>
</g>
<g>
	<g>
		<path d="M195.537,222.719l-30.071-9.109c-4.981-1.51-10.246,1.306-11.757,6.29c-1.51,4.984,1.306,10.247,6.291,11.757
			l10.621,3.217c-0.609,1.247-0.958,2.641-0.958,4.122c0,5.207,4.222,9.429,9.429,9.429c4.775,0,8.711-3.553,9.334-8.158
			l1.646,0.499c0.911,0.277,1.831,0.407,2.737,0.407c4.046,0,7.786-2.625,9.021-6.698
			C203.338,229.493,200.522,224.229,195.537,222.719z"/>
	</g>
</g>
<g>
</g>
<g>
</g>
<g>
</g>
<g>
</g>
<g>
</g>
<g>
</g>
<g>
</g>
<g>
</g>
<g>
</g>
<g>
</g>
<g>
</g>
<g>
</g>
<g>
</g>
<g>
</g>
<g>
</g>
</svg>
