<?xml version="1.0" encoding="iso-8859-1"?>
<!-- Generator: Adobe Illustrator 19.0.0, SVG Export Plug-In . SVG Version: 6.00 Build 0)  -->
<svg version="1.1" id="Layer_1" xmlns="http://www.w3.org/2000/svg" xmlns:xlink="http://www.w3.org/1999/xlink" x="0px" y="0px"
	 viewBox="0 0 511.998 511.998" style="enable-background:new 0 0 511.998 511.998;" xml:space="preserve">
<g>
	<g>
		<path d="M357.354,274.647c-0.765-4.649-5.149-7.8-9.807-7.029l-72.248,11.923c-2.232,0.369-4.228,1.609-5.545,3.448
			c-1.319,1.84-1.852,4.127-1.484,6.36c3.645,22.084,22.83,37.799,44.518,37.799c2.432,0,4.9-0.198,7.376-0.606
			c11.897-1.964,22.318-8.443,29.343-18.245C356.533,298.496,359.319,286.545,357.354,274.647z M335.637,298.357
			c-4.369,6.096-10.85,10.126-18.251,11.348c-12.332,2.038-24.163-4.346-29.58-14.93l52.807-8.715
			C339.977,290.447,338.294,294.649,335.637,298.357z"/>
	</g>
</g>
<g>
	<g>
		<path d="M242.208,282.99c-1.316-1.84-3.312-3.08-5.544-3.448l-72.248-11.923c-4.662-0.77-9.042,2.381-9.808,7.029
			c-1.965,11.898,0.823,23.848,7.847,33.651c7.024,9.803,17.446,16.281,29.343,18.245c2.479,0.408,4.943,0.606,7.376,0.606
			c21.686,0,40.874-15.715,44.518-37.799C244.06,287.116,243.527,284.828,242.208,282.99z M194.578,309.705
			c-7.401-1.222-13.883-5.252-18.251-11.348c-2.657-3.707-4.339-7.909-4.975-12.297l52.807,8.715
			C218.743,305.359,206.915,311.742,194.578,309.705z"/>
	</g>
</g>
<g>
	<g>
		<path d="M458.251,5.554c-1.312-3.52-4.772-5.768-8.522-5.537c-3.749,0.231-6.906,2.888-7.776,6.542
			c-0.183,0.768-18.919,75.775-100.135,96.973c-15.764-13.567-34.386-23.132-54.759-28.046L262.397,47.37
			c-1.621-1.847-3.958-2.906-6.416-2.906c-2.457,0-4.794,1.059-6.416,2.906l-24.661,28.115
			c-20.363,4.91-38.976,14.466-54.734,28.021c-33.384-8.684-60.23-27.161-79.802-55.022C74.974,26.569,70.055,6.739,70.012,6.558
			c-0.87-3.654-4.028-6.311-7.777-6.542c-3.743-0.232-7.209,2.017-8.52,5.537c-9.847,26.433-12.889,51.515-9.04,74.548
			c3.222,19.278,11.254,37.179,23.873,53.205c18.795,23.87,43.601,38.216,57.981,45.103c-0.331,1.718-0.628,3.444-0.892,5.181
			h-5.955c-4.714,0-8.533,3.82-8.533,8.533v61.684c0,4.712,3.819,8.533,8.533,8.533h4.401v49.431
			c0,20.903,17.006,37.909,37.92,37.909c0.157,0,0.284,0.127,0.284,0.284v7.971c-11.655,2.032-22.398,7.566-30.952,16.109
			c-10.959,10.959-16.994,25.526-16.994,41.018c0,4.712,3.819,8.533,8.533,8.533h31.79c5.669,25.586,20.867,46.905,41.615,57.896
			l55.703,29.513c1.25,0.662,2.622,0.993,3.996,0.993c1.372,0,2.745-0.331,3.995-0.993l55.714-29.513
			c20.744-10.988,35.945-32.307,41.624-57.896h31.781c4.714,0,8.533-3.82,8.533-8.533c0-15.492-6.036-30.06-16.994-41.018
			c-8.543-8.543-19.287-14.077-30.948-16.109v-7.971c0-0.035,0-0.118,0.083-0.201c0.083-0.083,0.166-0.083,0.201-0.083
			c20.909,0,37.92-17.011,37.92-37.92v-32.699c0-4.712-3.819-8.533-8.533-8.533s-8.533,3.82-8.533,8.533v32.701
			c0,11.499-9.356,20.854-20.854,20.854c-4.634,0-8.991,1.804-12.27,5.083c-3.276,3.277-5.08,7.633-5.08,12.267v7.086h-46.579
			l-22.664-39.254c-1.525-2.64-4.34-4.266-7.39-4.266c-3.049,0-5.865,1.627-7.39,4.266l-22.662,39.254h-46.579v-7.086
			c0-9.567-7.783-17.35-17.362-17.35c-11.493,0-20.843-9.35-20.843-20.843v-49.431h251.137c4.714,0,8.533-3.82,8.533-8.533v-61.684
			c0-4.712-3.819-8.533-8.533-8.533h-5.955c-3.737-24.608-14.259-47.37-30.722-66.326c41.104-13.336,66.2-39.2,80.382-59.585
			c5.569-8.004,9.885-15.717,13.179-22.505c12.303,59.327-19.885,95.803-51.252,116.591c-3.929,2.603-5.003,7.898-2.399,11.827
			c1.642,2.478,4.355,3.82,7.121,3.82c1.619,0,3.255-0.46,4.706-1.421C440.496,144.023,491.192,93.968,458.251,5.554z
			 M307.696,466.413l-51.72,27.398l-51.709-27.398c-15.351-8.133-26.881-23.753-32.022-42.815h34.251
			c15.486,0,30.056-6.034,41.03-16.994c3.273-3.272,6.097-6.873,8.461-10.719c2.365,3.846,5.188,7.445,8.461,10.719
			c10.96,10.959,25.527,16.994,41.02,16.994h34.258C334.577,442.662,323.044,458.283,307.696,466.413z M339.599,374.118
			c10.942,0,21.227,4.261,28.962,11.995c5.683,5.683,9.49,12.74,11.111,20.419h-74.205c-10.934,0-21.215-4.261-28.952-11.995
			c-5.682-5.683-9.489-12.738-11.11-20.419H339.599z M255.983,339.131l10.345,17.918h-20.69L255.983,339.131z M246.569,374.118
			c-1.62,7.68-5.427,14.735-11.107,20.414c-7.748,7.738-18.035,12-28.967,12h-74.205c1.621-7.679,5.427-14.736,11.107-20.414
			c7.748-7.738,18.035-12,28.966-12H246.569z M238.066,86.362l17.917-20.426L273.9,86.362v97.23h-35.834V86.362z M81.955,122.749
			C62.31,97.801,55.902,68.426,62.797,35.176c3.295,6.788,7.609,14.5,13.178,22.505c14.183,20.385,39.277,46.247,80.379,59.584
			c-11.423,13.153-19.994,28.136-25.416,44.304C117.77,154.935,97.472,142.455,81.955,122.749z M383.752,245.276H128.213v-44.618
			h40.17c4.714,0,8.533-3.82,8.533-8.533s-3.819-8.533-8.533-8.533h-25.477c3.659-20.893,12.98-40.18,27.269-56.234
			c13.862-15.574,31.28-26.865,50.826-33.081v89.314h-28.156c-4.714,0-8.533,3.82-8.533,8.533s3.819,8.533,8.533,8.533h190.908
			V245.276z M369.06,183.592h-78.095v-0.001V94.278c19.543,6.215,36.96,17.506,50.822,33.079
			C356.079,143.413,365.401,162.7,369.06,183.592z"/>
	</g>
</g>
<g>
	<g>
		<path d="M270.465,225.38l-2.413-2.413l2.413-2.413c3.33-3.331,3.33-8.734-0.002-12.067c-3.333-3.332-8.735-3.332-12.068,0
			l-2.413,2.413l-2.413-2.413c-3.333-3.332-8.735-3.332-12.068,0s-3.332,8.735,0,12.067l2.413,2.413l-2.413,2.413
			c-3.332,3.332-3.332,8.735,0,12.067c1.667,1.666,3.851,2.5,6.035,2.5c2.183,0,4.368-0.833,6.034-2.5l2.413-2.413l2.413,2.413
			c1.667,1.666,3.851,2.5,6.034,2.5c2.183,0,4.368-0.833,6.035-2.5C273.797,234.114,273.797,228.711,270.465,225.38z"/>
	</g>
</g>
<g>
	<g>
		<path d="M174.815,225.38l-2.413-2.413l2.413-2.413c3.33-3.331,3.33-8.734-0.002-12.067c-3.334-3.332-8.735-3.332-12.068,0
			l-2.413,2.413l-2.413-2.413c-3.333-3.332-8.735-3.332-12.068,0c-3.332,3.332-3.332,8.735,0,12.067l2.413,2.413l-2.413,2.413
			c-3.332,3.332-3.332,8.735,0,12.067c1.667,1.666,3.851,2.5,6.034,2.5s4.368-0.833,6.034-2.5l2.413-2.413l2.413,2.413
			c1.667,1.666,3.851,2.5,6.035,2.5c2.183,0,4.368-0.833,6.034-2.5C178.147,234.114,178.147,228.711,174.815,225.38z"/>
	</g>
</g>
<g>
	<g>
		<path d="M366.116,225.38l-2.413-2.413l2.413-2.413c3.329-3.331,3.329-8.734-0.002-12.067c-3.333-3.332-8.735-3.332-12.068,0
			l-2.413,2.413l-2.413-2.413c-3.333-3.332-8.735-3.332-12.068,0c-3.332,3.332-3.332,8.735,0,12.067l2.413,2.413l-2.413,2.413
			c-3.332,3.332-3.332,8.735,0,12.067c1.667,1.666,3.851,2.5,6.035,2.5c2.183,0,4.368-0.833,6.034-2.5l2.413-2.413l2.413,2.413
			c1.667,1.666,3.851,2.5,6.034,2.5s4.368-0.833,6.034-2.5C369.448,234.114,369.448,228.711,366.116,225.38z"/>
	</g>
</g>
<g>
</g>
<g>
</g>
<g>
</g>
<g>
</g>
<g>
</g>
<g>
</g>
<g>
</g>
<g>
</g>
<g>
</g>
<g>
</g>
<g>
</g>
<g>
</g>
<g>
</g>
<g>
</g>
<g>
</g>
</svg>
