<?xml version="1.0" encoding="iso-8859-1"?>
<!-- Generator: Adobe Illustrator 19.0.0, SVG Export Plug-In . SVG Version: 6.00 Build 0)  -->
<svg version="1.1" id="Capa_1" xmlns="http://www.w3.org/2000/svg" xmlns:xlink="http://www.w3.org/1999/xlink" x="0px" y="0px"
	 viewBox="0 0 512.002 512.002" style="enable-background:new 0 0 512.002 512.002;" xml:space="preserve">
<g>
	<g>
		<path d="M508.821,298.072c-0.78-0.548-19.333-13.365-41.726-7.789c-16.549,4.119-30.373,16.91-41.085,38.016
			c-5.15,10.146-12.458,19.332-21.773,27.396c-10.767-15.532-28.709-25.73-48.997-25.73c-22.094,0-41.403,12.096-51.693,30.002
			c-9.205-16.019-25.628-27.374-44.808-29.593v-27.122h101.787c0.01,0,0.021,0.001,0.031,0.001h66.888
			c3.362,0,6.206-2.241,7.155-5.3c0.219-0.706,0.337-1.455,0.337-2.232c0-4.062-3.237-7.385-7.299-7.49
			c-28.961-0.745-56.092-13.085-76.398-34.745c-5.104-5.445-9.634-11.328-13.56-17.566c-11.775-18.715-18.1-40.626-18.1-63.497
			c0-30.494,11.244-59.283,31.66-81.062c20.305-21.661,47.437-34,76.398-34.745c4.06-0.104,7.299-3.466,7.299-7.529
			c0-4.137-3.353-7.492-7.492-7.492h-66.887H258.74V8.234c0-4.137-3.353-7.492-7.492-7.492s-7.492,3.354-7.492,7.492v33.366h-35.329
			c-69.38,0-125.825,58.689-125.825,130.828c0,2.255,0.055,4.496,0.164,6.722c0.109,2.227,0.272,4.439,0.486,6.636
			c0.215,2.197,0.482,4.377,0.801,6.54c0.319,2.163,0.688,4.309,1.109,6.436c0.21,1.064,0.432,2.123,0.666,3.176
			c12.904,57.974,62.974,101.318,122.598,101.318h35.329v27.275c-18.658,2.547-34.585,13.758-43.596,29.438
			c-10.29-17.908-29.599-30.002-51.693-30.002c-18.267,0-34.631,8.269-45.571,21.251c-10.599-14.07-14.753-31.312-12.634-52.442
			c4.47-44.563-1.915-75.196-18.976-91.047c-9.474-8.803-22.322-12.554-35.249-10.287c-21.707,3.804-32.819,12.709-33.281,13.085
			c-2.293,1.871-3.269,4.917-2.493,7.772c0.777,2.855,3.162,4.986,6.088,5.437c26.953,4.156,39.802,17.325,38.189,39.14
			c-0.534,7.227-2.975,14.357-7.057,20.621c-22.708,34.849-35.225,68.319-37.201,99.479c-1.615,25.45,3.734,49.364,15.899,71.076
			c2.023,3.611,6.591,4.897,10.198,2.874c3.609-2.022,4.896-6.588,2.874-10.198c-10.73-19.153-15.447-40.283-14.017-62.804
			c1.812-28.552,13.521-59.589,34.802-92.248c5.46-8.378,8.725-17.955,9.445-27.696c0.92-12.432-1.898-23.668-8.145-32.492
			c-5.198-7.341-12.656-13.042-22.28-17.054c2.832-0.841,6.02-1.616,9.566-2.236c4.86-0.853,14.238-1.138,22.464,6.505
			c9.242,8.586,19.218,29.189,14.265,78.575c-2.699,26.906,3.701,49.505,19.03,67.265c-0.109,0.235-0.201,0.476-0.307,0.712
			c-0.275,0.611-0.541,1.227-0.795,1.849c-0.123,0.303-0.242,0.607-0.361,0.912c-0.272,0.698-0.53,1.401-0.776,2.113
			c-0.087,0.252-0.173,0.502-0.256,0.755c-0.256,0.774-0.495,1.556-0.72,2.343c-0.059,0.206-0.119,0.411-0.176,0.618
			c-0.229,0.836-0.438,1.68-0.63,2.53c-0.039,0.172-0.082,0.343-0.119,0.514c-0.191,0.877-0.359,1.763-0.51,2.654
			c-0.026,0.154-0.057,0.307-0.082,0.461c-0.146,0.898-0.267,1.804-0.372,2.716c-0.017,0.15-0.041,0.298-0.057,0.448
			c-0.099,0.925-0.173,1.858-0.229,2.795c-0.008,0.131-0.023,0.261-0.03,0.392c-0.057,1.06-0.088,2.127-0.088,3.2
			c0,30.806,23.496,56.226,53.507,59.283c2.001,0.204,4.031,0.309,6.084,0.309c0.888,0,1.771-0.027,2.651-0.067
			c0.283-0.012,0.565-0.027,0.848-0.044c0.633-0.038,1.264-0.086,1.893-0.145c0.645-0.058,1.285-0.131,1.924-0.21
			c0.289-0.036,0.577-0.07,0.864-0.11c18.62-2.569,34.511-13.767,43.509-29.421c0.05,0.087,0.105,0.171,0.156,0.258
			c0.351,0.602,0.709,1.2,1.08,1.788c0.154,0.245,0.312,0.487,0.469,0.73c0.325,0.5,0.654,0.997,0.994,1.487
			c0.237,0.343,0.48,0.68,0.724,1.018c0.276,0.38,0.55,0.76,0.834,1.133c0.349,0.46,0.707,0.91,1.069,1.359
			c0.196,0.243,0.39,0.488,0.589,0.728c0.488,0.587,0.991,1.164,1.501,1.732c0.088,0.097,0.173,0.197,0.261,0.294
			c2.012,2.212,4.184,4.287,6.522,6.183c2.783,2.258,5.763,4.241,8.884,5.948c0.26,0.143,0.524,0.279,0.787,0.419
			c0.49,0.259,0.983,0.514,1.48,0.759c0.418,0.207,0.839,0.407,1.263,0.603c0.333,0.154,0.665,0.305,1,0.453
			c0.541,0.24,1.085,0.473,1.633,0.698c0.185,0.075,0.372,0.147,0.557,0.22c3.633,1.441,7.439,2.532,11.379,3.237
			c0.207,0.037,0.414,0.076,0.62,0.111c0.598,0.101,1.2,0.19,1.803,0.273c0.353,0.049,0.705,0.093,1.059,0.135
			c0.51,0.06,1.022,0.118,1.536,0.166c0.506,0.047,1.014,0.082,1.522,0.116c0.394,0.026,0.785,0.058,1.18,0.076
			c0.93,0.044,1.861,0.071,2.795,0.071c0.923,0,1.84-0.029,2.753-0.07c0.202-0.009,0.403-0.019,0.603-0.03
			c1.914-0.106,3.805-0.302,5.67-0.583c0.023-0.003,0.046-0.007,0.068-0.01c18.077-2.75,33.678-13.584,42.592-29.193
			c9.839,17.25,27.832,28.662,48.355,29.788c0.194,0.011,0.388,0.02,0.581,0.029c0.917,0.042,1.837,0.07,2.763,0.07
			c32.859,0,59.59-26.732,59.59-59.591c0-0.969-0.028-1.933-0.074-2.894c-0.011-0.233-0.031-0.463-0.045-0.696
			c-0.044-0.751-0.1-1.5-0.172-2.247c-0.021-0.212-0.045-0.422-0.068-0.633c-0.085-0.794-0.186-1.584-0.302-2.37
			c-0.021-0.139-0.042-0.279-0.064-0.418c-0.14-0.903-0.301-1.801-0.482-2.694c-0.004-0.021-0.008-0.041-0.012-0.062
			c-0.57-2.788-1.331-5.532-2.302-8.216c12.096-9.864,21.521-21.361,28.06-34.245c8.621-16.985,19.117-27.153,31.194-30.221
			c6.159-1.565,12.036-1.069,16.908,0.116c-1.014,0.763-2.049,1.593-3.094,2.495c-8.242,7.11-18.773,20.25-22.138,42.476
			c-1.137,7.511-1.381,17.214-1.664,28.449c-0.61,24.212-1.371,54.343-11.466,78.214c-11.288,26.694-32.325,39.67-64.311,39.67
			H109.582c-24.218,0-47.251-10.14-64.856-28.551c-2.861-2.991-7.603-3.096-10.592-0.237c-2.99,2.859-3.097,7.601-0.237,10.592
			c20.459,21.395,47.339,33.178,75.686,33.178h275.216c38.132,0,64.412-16.425,78.111-48.816
			c11.202-26.489,12.003-58.196,12.645-83.673c0.271-10.732,0.504-20.001,1.5-26.584c5.005-33.061,28.553-40.499,29.498-40.784
			c2.779-0.788,4.858-3.104,5.342-5.951C512.38,302.606,511.183,299.734,508.821,298.072z M192.61,395.945
			c-0.156,1.085-0.355,2.156-0.587,3.213c0,0.002-0.001,0.003-0.001,0.005c-4.016,18.313-19.342,32.087-37.583,34.589
			c-0.171,0.023-0.343,0.044-0.514,0.066c-0.451,0.056-0.903,0.107-1.356,0.15c-0.34,0.031-0.682,0.055-1.024,0.078
			c-0.326,0.023-0.651,0.049-0.978,0.065c-0.696,0.032-1.394,0.053-2.099,0.053c-24.596,0-44.607-20.011-44.607-44.608
			c0-0.912,0.035-1.821,0.091-2.729c0.013-0.212,0.033-0.422,0.048-0.632c0.055-0.733,0.127-1.464,0.218-2.193
			c0.023-0.186,0.046-0.372,0.071-0.556c0.255-1.843,0.619-3.667,1.102-5.459c0.019-0.071,0.041-0.14,0.06-0.211
			c0.222-0.809,0.469-1.611,0.736-2.407c0.051-0.152,0.102-0.305,0.155-0.456c0.286-0.822,0.592-1.637,0.927-2.442
			c0.016-0.039,0.03-0.08,0.047-0.119c0.344-0.821,0.717-1.63,1.111-2.43c0.111-0.225,0.228-0.446,0.343-0.667
			c0.288-0.56,0.587-1.115,0.898-1.663c7.675-13.506,22.187-22.643,38.802-22.643c22.427,0,41.033,16.638,44.143,38.218
			c-0.225,2.1-0.347,4.23-0.347,6.389C192.263,391.714,192.385,393.845,192.61,395.945z M145.749,172.422
			c0-13.565,2.222-26.847,6.601-39.477c1.355-3.91-0.714-8.177-4.623-9.533c-3.912-1.354-8.178,0.714-9.533,4.623
			c-4.929,14.212-7.429,29.145-7.429,44.386c0,49.761,26.863,93.126,66.299,115.239c-0.9-0.096-1.797-0.204-2.691-0.323
			c-0.184-0.025-0.367-0.054-0.55-0.08c-0.711-0.098-1.422-0.2-2.13-0.313c-0.292-0.047-0.582-0.1-0.874-0.149
			c-0.595-0.1-1.191-0.2-1.783-0.31c-0.333-0.062-0.664-0.13-0.997-0.195c-0.549-0.107-1.098-0.215-1.644-0.331
			c-0.349-0.074-0.696-0.153-1.044-0.231c-0.525-0.117-1.05-0.234-1.572-0.359c-0.359-0.086-0.716-0.176-1.074-0.265
			c-0.508-0.127-1.017-0.255-1.522-0.39c-0.362-0.096-0.721-0.195-1.082-0.295c-0.498-0.138-0.995-0.278-1.491-0.422
			c-0.363-0.106-0.723-0.214-1.084-0.324c-0.491-0.149-0.981-0.302-1.468-0.458c-0.358-0.115-0.715-0.231-1.072-0.349
			c-0.487-0.162-0.974-0.328-1.458-0.496c-0.353-0.123-0.705-0.246-1.057-0.372c-0.484-0.174-0.967-0.354-1.448-0.534
			c-0.347-0.13-0.693-0.26-1.039-0.394c-0.486-0.189-0.97-0.383-1.453-0.578c-0.334-0.135-0.668-0.269-1-0.407
			c-0.493-0.206-0.984-0.418-1.474-0.631c-0.318-0.138-0.637-0.274-0.954-0.415c-0.511-0.228-1.018-0.463-1.525-0.698
			c-0.29-0.135-0.581-0.266-0.87-0.403c-0.563-0.268-1.122-0.544-1.68-0.821c-0.228-0.113-0.457-0.223-0.685-0.337
			c-0.774-0.391-1.542-0.79-2.306-1.2c-0.01-0.005-0.02-0.01-0.029-0.015c-0.781-0.419-1.556-0.847-2.326-1.285
			c-0.181-0.103-0.359-0.21-0.538-0.314c-0.58-0.334-1.159-0.669-1.732-1.013c-0.26-0.156-0.516-0.318-0.774-0.475
			c-0.488-0.299-0.977-0.597-1.46-0.903c-0.29-0.183-0.575-0.372-0.863-0.557c-0.448-0.29-0.897-0.58-1.341-0.876
			c-0.3-0.2-0.596-0.405-0.895-0.607c-0.425-0.29-0.851-0.58-1.273-0.876c-0.305-0.214-0.607-0.432-0.91-0.648
			c-0.411-0.295-0.821-0.59-1.229-0.891c-0.303-0.224-0.603-0.45-0.904-0.676c-0.4-0.302-0.799-0.604-1.195-0.911
			c-0.301-0.233-0.6-0.469-0.899-0.705c-0.392-0.31-0.78-0.621-1.168-0.936c-0.296-0.241-0.59-0.481-0.883-0.725
			c-0.384-0.319-0.765-0.64-1.144-0.964c-0.291-0.248-0.58-0.495-0.868-0.746c-0.379-0.33-0.754-0.663-1.129-0.998
			c-0.281-0.251-0.561-0.5-0.839-0.754c-0.378-0.344-0.75-0.692-1.123-1.042c-0.27-0.253-0.54-0.504-0.807-0.759
			c-0.379-0.362-0.752-0.728-1.126-1.096c-0.254-0.25-0.509-0.496-0.761-0.748c-0.389-0.389-0.771-0.783-1.155-1.178
			c-0.231-0.238-0.464-0.472-0.691-0.711c-0.418-0.438-0.828-0.882-1.24-1.327c-0.188-0.203-0.379-0.403-0.564-0.607
			c-0.589-0.647-1.172-1.301-1.747-1.961c-0.003-0.004-0.007-0.008-0.01-0.012c-0.583-0.67-1.159-1.349-1.726-2.033
			c-0.156-0.187-0.307-0.379-0.461-0.566c-0.406-0.494-0.81-0.99-1.208-1.491c-0.204-0.258-0.404-0.52-0.605-0.78
			c-0.341-0.438-0.682-0.876-1.018-1.32c-0.218-0.289-0.432-0.582-0.647-0.873c-0.312-0.421-0.624-0.842-0.931-1.268
			c-0.221-0.307-0.438-0.616-0.655-0.925c-0.295-0.417-0.588-0.835-0.877-1.257c-0.219-0.319-0.433-0.64-0.649-0.961
			c-0.281-0.418-0.56-0.837-0.835-1.259c-0.215-0.33-0.427-0.66-0.638-0.992c-0.269-0.421-0.534-0.841-0.797-1.266
			c-0.209-0.337-0.416-0.675-0.621-1.015c-0.259-0.427-0.514-0.854-0.768-1.285c-0.201-0.342-0.402-0.684-0.599-1.029
			c-0.25-0.434-0.495-0.869-0.739-1.306c-0.194-0.347-0.387-0.693-0.577-1.043c-0.241-0.443-0.479-0.887-0.713-1.333
			c-0.185-0.349-0.369-0.696-0.549-1.047c-0.235-0.454-0.463-0.912-0.692-1.369c-0.174-0.348-0.349-0.694-0.518-1.043
			c-0.229-0.469-0.451-0.943-0.674-1.415c-0.162-0.344-0.326-0.686-0.484-1.031c-0.228-0.496-0.448-0.996-0.669-1.496
			c-0.144-0.326-0.292-0.649-0.432-0.976c-0.241-0.556-0.472-1.118-0.704-1.679c-0.114-0.276-0.232-0.549-0.345-0.827
			c-0.333-0.821-0.656-1.646-0.97-2.477c-0.007-0.019-0.015-0.038-0.022-0.057c-0.322-0.851-0.633-1.708-0.936-2.569
			c-0.096-0.272-0.185-0.546-0.279-0.819c-0.203-0.59-0.406-1.18-0.599-1.774c-0.111-0.34-0.215-0.681-0.323-1.022
			c-0.168-0.532-0.337-1.064-0.497-1.599c-0.111-0.37-0.216-0.742-0.324-1.114c-0.148-0.51-0.296-1.021-0.438-1.534
			c-0.107-0.388-0.209-0.778-0.312-1.168c-0.133-0.502-0.265-1.005-0.392-1.509c-0.1-0.399-0.195-0.799-0.291-1.2
			c-0.12-0.499-0.238-1-0.352-1.502c-0.092-0.407-0.18-0.815-0.268-1.224c-0.108-0.501-0.213-1.003-0.315-1.506
			c-0.083-0.412-0.163-0.824-0.242-1.238c-0.096-0.504-0.189-1.01-0.279-1.516c-0.074-0.416-0.146-0.831-0.215-1.248
			c-0.085-0.51-0.166-1.022-0.244-1.535c-0.064-0.416-0.127-0.832-0.186-1.25c-0.074-0.517-0.142-1.037-0.209-1.556
			c-0.054-0.417-0.108-0.833-0.158-1.252c-0.062-0.525-0.118-1.054-0.174-1.581c-0.044-0.414-0.089-0.828-0.128-1.244
			c-0.051-0.541-0.095-1.086-0.139-1.63c-0.033-0.404-0.068-0.806-0.097-1.212c-0.041-0.573-0.072-1.148-0.105-1.723
			c-0.021-0.38-0.047-0.757-0.065-1.138c-0.03-0.637-0.05-1.278-0.07-1.919c-0.01-0.321-0.025-0.639-0.033-0.961
			c-0.023-0.962-0.035-1.927-0.035-2.895c0-0.957,0.012-1.921,0.035-2.883c0.008-0.322,0.023-0.641,0.033-0.962
			c0.02-0.638,0.04-1.277,0.07-1.912c0.018-0.386,0.044-0.769,0.066-1.154c0.032-0.568,0.064-1.138,0.104-1.704
			c0.029-0.408,0.064-0.812,0.097-1.219c0.044-0.542,0.088-1.084,0.139-1.624c0.039-0.417,0.084-0.83,0.128-1.246
			c0.055-0.525,0.111-1.052,0.173-1.575c0.05-0.422,0.104-0.841,0.159-1.262c0.066-0.514,0.134-1.028,0.207-1.54
			c0.06-0.424,0.124-0.846,0.189-1.268c0.077-0.504,0.157-1.008,0.24-1.51c0.071-0.425,0.144-0.848,0.218-1.271
			c0.088-0.497,0.18-0.993,0.274-1.488c0.081-0.424,0.163-0.845,0.247-1.267c0.099-0.491,0.202-0.98,0.307-1.469
			c0.09-0.42,0.181-0.839,0.275-1.258c0.11-0.487,0.226-0.974,0.342-1.459c0.099-0.416,0.198-0.831,0.302-1.245
			c0.121-0.483,0.249-0.965,0.376-1.446c0.108-0.41,0.215-0.821,0.327-1.229c0.134-0.486,0.275-0.97,0.415-1.454
			c0.115-0.398,0.228-0.797,0.347-1.194c0.149-0.496,0.306-0.99,0.461-1.483c0.12-0.38,0.235-0.76,0.358-1.138
			c0.177-0.541,0.363-1.079,0.546-1.616c0.111-0.325,0.217-0.651,0.331-0.974c0.297-0.844,0.602-1.684,0.918-2.518
			c0.128-0.339,0.263-0.672,0.394-1.009c0.197-0.507,0.392-1.016,0.595-1.52c0.157-0.388,0.321-0.772,0.481-1.158
			c0.187-0.448,0.371-0.897,0.562-1.342c0.173-0.402,0.353-0.8,0.53-1.2c0.188-0.422,0.375-0.846,0.566-1.267
			c0.186-0.406,0.378-0.809,0.568-1.212c0.194-0.41,0.386-0.819,0.583-1.226c0.197-0.405,0.399-0.807,0.599-1.209
			c0.2-0.4,0.4-0.798,0.604-1.196c0.207-0.403,0.419-0.802,0.629-1.202c0.207-0.391,0.415-0.78,0.625-1.169
			c0.218-0.4,0.438-0.797,0.66-1.195c0.214-0.382,0.429-0.763,0.646-1.143c0.227-0.396,0.456-0.789,0.687-1.182
			c0.22-0.374,0.443-0.745,0.667-1.116c0.239-0.395,0.479-0.787,0.721-1.179c0.225-0.362,0.453-0.721,0.68-1.08
			c0.249-0.392,0.498-0.783,0.752-1.171c0.231-0.354,0.466-0.704,0.7-1.056c0.259-0.387,0.516-0.774,0.779-1.157
			c0.237-0.345,0.477-0.685,0.717-1.027c0.27-0.385,0.538-0.77,0.813-1.151c0.238-0.33,0.479-0.654,0.72-0.982
			c0.284-0.386,0.566-0.773,0.855-1.156c0.234-0.31,0.474-0.614,0.711-0.922c0.303-0.392,0.602-0.786,0.909-1.174
			c0.205-0.258,0.414-0.511,0.621-0.767c0.721-0.894,1.453-1.778,2.2-2.649c0.161-0.188,0.319-0.379,0.48-0.565
			c0.34-0.391,0.685-0.774,1.03-1.161c0.24-0.27,0.477-0.541,0.72-0.808c0.334-0.368,0.674-0.729,1.013-1.092
			c0.261-0.28,0.519-0.56,0.782-0.837c0.334-0.351,0.672-0.696,1.01-1.042c0.275-0.282,0.549-0.564,0.827-0.843
			c0.339-0.34,0.681-0.675,1.024-1.01c0.283-0.277,0.565-0.554,0.85-0.827c0.346-0.331,0.694-0.658,1.044-0.984
			c0.291-0.271,0.581-0.542,0.874-0.811c0.352-0.322,0.705-0.639,1.061-0.957c0.297-0.265,0.594-0.528,0.894-0.79
			c0.359-0.313,0.718-0.623,1.081-0.931c0.304-0.258,0.608-0.514,0.914-0.769c0.365-0.304,0.731-0.605,1.099-0.905
			c0.31-0.252,0.621-0.5,0.934-0.748c0.371-0.295,0.742-0.588,1.117-0.878c0.316-0.245,0.634-0.485,0.953-0.727
			c0.378-0.286,0.755-0.57,1.136-0.852c0.32-0.236,0.642-0.467,0.965-0.7c0.387-0.279,0.772-0.557,1.162-0.83
			c0.322-0.226,0.647-0.447,0.972-0.669c0.396-0.271,0.789-0.543,1.189-0.809c0.322-0.215,0.647-0.422,0.971-0.634
			c0.408-0.266,0.814-0.533,1.225-0.794c0.312-0.197,0.627-0.388,0.94-0.581c0.429-0.266,0.855-0.533,1.288-0.793
			c0.137-0.082,0.277-0.161,0.415-0.243c1.009-0.6,2.029-1.181,3.058-1.748c0.333-0.184,0.663-0.371,0.998-0.55
			c0.413-0.222,0.83-0.437,1.247-0.653c0.36-0.188,0.716-0.378,1.078-0.56c0.413-0.21,0.829-0.412,1.245-0.615
			c0.372-0.183,0.742-0.367,1.116-0.545c0.411-0.196,0.825-0.386,1.238-0.576c0.384-0.177,0.767-0.356,1.153-0.528
			c0.411-0.184,0.825-0.363,1.239-0.541c0.394-0.17,0.786-0.34,1.182-0.505c0.414-0.173,0.83-0.342,1.246-0.509
			c0.4-0.161,0.799-0.322,1.202-0.478c0.416-0.162,0.832-0.32,1.25-0.477c0.41-0.154,0.819-0.306,1.231-0.454
			c0.415-0.15,0.831-0.298,1.248-0.443c0.419-0.146,0.838-0.288,1.259-0.428c0.417-0.139,0.833-0.277,1.252-0.41
			c0.427-0.137,0.854-0.269,1.284-0.4c0.416-0.127,0.831-0.254,1.248-0.376c0.438-0.129,0.88-0.252,1.32-0.375
			c0.413-0.115,0.824-0.231,1.239-0.341c0.453-0.121,0.91-0.235,1.365-0.35c0.405-0.102,0.808-0.206,1.215-0.303
			c0.474-0.113,0.951-0.219,1.427-0.326c0.394-0.088,0.786-0.18,1.181-0.264c0.51-0.109,1.024-0.208,1.536-0.309
			c0.364-0.072,0.726-0.148,1.091-0.216c0.66-0.123,1.325-0.235,1.989-0.346c0.22-0.037,0.438-0.078,0.658-0.114
			c0.882-0.141,1.769-0.271,2.658-0.39c0.293-0.039,0.588-0.071,0.881-0.108c0.549-0.069,1.099-0.138,1.65-0.198
			c-18.691,10.487-34.799,25.937-46.619,45.373c-2.15,3.535-1.027,8.144,2.508,10.294c3.534,2.149,8.143,1.028,10.294-2.508
			c20.486-33.685,55.484-53.796,93.618-53.796h45.552c-40.041,21.917-67.41,65.617-67.41,115.844c0,17.911,3.42,35.272,10.167,51.6
			c1.579,3.824,5.964,5.645,9.784,4.063c3.825-1.579,5.644-5.96,4.063-9.784c-5.992-14.505-9.031-29.941-9.031-45.88
			c0-63.877,49.723-115.844,110.842-115.844h11.277c-1.442,0.79-2.871,1.611-4.284,2.46c-9.894,5.949-19.059,13.345-27.242,22.074
			c-23.029,24.568-35.712,56.995-35.712,91.31s12.683,66.742,35.712,91.309c9.352,9.976,19.987,18.212,31.526,24.536h-11.308
			c-35.029-0.01-68.376-17.625-89.21-47.125c-2.386-3.378-7.058-4.185-10.44-1.797c-3.38,2.386-4.184,7.061-1.798,10.441
			c11.485,16.264,26.351,29.331,43.169,38.482h-45.693C195.452,288.245,145.749,236.286,145.749,172.422z M295.996,395.945
			c-0.188,1.303-0.437,2.584-0.734,3.848c-0.009,0.035-0.025,0.068-0.033,0.103c-0.44,1.856-0.994,3.66-1.647,5.406
			c-0.102,0.269-0.21,0.534-0.316,0.8c-0.119,0.299-0.235,0.599-0.359,0.895c-5.932,13.911-18.735,24.214-34.122,26.625
			c-0.116,0.018-0.232,0.035-0.348,0.052c-0.563,0.084-1.131,0.155-1.701,0.217c-0.187,0.02-0.373,0.042-0.559,0.06
			c-0.528,0.051-1.06,0.089-1.593,0.122c-0.195,0.012-0.388,0.028-0.582,0.037c-0.712,0.034-1.427,0.055-2.148,0.055
			c-0.701,0-1.397-0.021-2.092-0.053c-0.337-0.016-0.672-0.043-1.007-0.067c-0.327-0.023-0.653-0.045-0.977-0.075
			c-0.476-0.045-0.948-0.097-1.42-0.157c-0.139-0.017-0.278-0.035-0.417-0.053c-18.19-2.476-33.523-16.19-37.6-34.424
			c-0.002-0.009-0.006-0.018-0.008-0.027c-0.248-1.108-0.458-2.227-0.622-3.364c0.225-2.1,0.347-4.23,0.347-6.389
			c0-2.159-0.122-4.289-0.347-6.389c3.108-21.58,21.715-38.218,44.142-38.218c22.427,0,41.033,16.638,44.143,38.218
			c-0.225,2.1-0.347,4.23-0.347,6.389C295.649,391.714,295.771,393.845,295.996,395.945z M355.239,434.164
			c-0.724,0-1.442-0.021-2.158-0.055c-0.183-0.009-0.364-0.024-0.545-0.035c-0.553-0.033-1.106-0.073-1.653-0.126
			c-0.162-0.016-0.323-0.034-0.483-0.052c-0.61-0.066-1.218-0.142-1.821-0.232c-0.072-0.011-0.144-0.021-0.216-0.032
			c-16.094-2.501-29.366-13.639-34.922-28.509c-0.202-0.548-0.395-1.101-0.576-1.66c-0.007-0.02-0.014-0.041-0.021-0.061
			c-0.394-1.216-0.738-2.457-1.032-3.723c-0.01-0.043-0.025-0.084-0.036-0.128c-0.273-1.187-0.503-2.388-0.679-3.608
			c0.225-2.1,0.347-4.23,0.347-6.389c0-2.159-0.122-4.289-0.347-6.389c3.11-21.58,21.716-38.218,44.143-38.218
			c19.932,0,36.849,13.141,42.55,31.213c0.024,0.075,0.049,0.15,0.072,0.225c0.189,0.611,0.364,1.229,0.526,1.85
			c0.032,0.124,0.064,0.247,0.096,0.371c0.149,0.589,0.287,1.184,0.413,1.782c0.036,0.173,0.069,0.346,0.103,0.518
			c0.11,0.559,0.213,1.121,0.302,1.687c0.038,0.244,0.069,0.489,0.103,0.735c0.071,0.505,0.14,1.012,0.194,1.522
			c0.039,0.375,0.064,0.752,0.094,1.128c0.031,0.396,0.07,0.79,0.091,1.189c0.041,0.792,0.066,1.587,0.066,2.387
			C399.847,414.153,379.836,434.164,355.239,434.164z"/>
	</g>
</g>
<g>
	<g>
		<path d="M148.467,358.138c-17.325,0-31.418,14.094-31.418,31.418c0,17.324,14.094,31.418,31.418,31.418
			c17.325,0,31.418-14.094,31.418-31.418C179.885,372.232,165.792,358.138,148.467,358.138z M148.467,405.99
			c-9.062,0-16.435-7.373-16.435-16.435c0-9.062,7.373-16.435,16.435-16.435c9.062,0,16.435,7.373,16.435,16.435
			C164.902,398.618,157.529,405.99,148.467,405.99z"/>
	</g>
</g>
<g>
	<g>
		<path d="M251.853,358.138c-4.138,0-7.492,3.354-7.492,7.492c0,4.137,3.353,7.492,7.492,7.492c9.062,0,16.435,7.373,16.435,16.435
			c0,9.062-7.373,16.435-16.435,16.435c-9.062,0-16.435-7.373-16.435-16.435c0-1.727,0.266-3.425,0.787-5.047
			c1.269-3.939-0.895-8.159-4.834-9.427c-3.936-1.267-8.16,0.895-9.428,4.834c-1.002,3.109-1.509,6.352-1.509,9.64
			c0.001,17.325,14.094,31.419,31.419,31.419c17.325,0,31.418-14.094,31.418-31.418
			C283.271,372.232,269.178,358.138,251.853,358.138z"/>
	</g>
</g>
<g>
	<g>
		<path d="M355.239,358.138c-17.325,0-31.418,14.094-31.418,31.418c0,17.324,14.093,31.418,31.418,31.418
			c17.325,0,31.418-14.094,31.418-31.418C386.657,372.232,372.564,358.138,355.239,358.138z M355.239,405.99
			c-9.062,0-16.435-7.373-16.435-16.435c0-9.062,7.373-16.435,16.435-16.435c9.062,0,16.435,7.373,16.435,16.435
			C371.674,398.618,364.301,405.99,355.239,405.99z"/>
	</g>
</g>
<g>
</g>
<g>
</g>
<g>
</g>
<g>
</g>
<g>
</g>
<g>
</g>
<g>
</g>
<g>
</g>
<g>
</g>
<g>
</g>
<g>
</g>
<g>
</g>
<g>
</g>
<g>
</g>
<g>
</g>
</svg>
