<?xml version="1.0" encoding="iso-8859-1"?>
<!-- Generator: Adobe Illustrator 19.0.0, SVG Export Plug-In . SVG Version: 6.00 Build 0)  -->
<svg version="1.1" id="Layer_1" xmlns="http://www.w3.org/2000/svg" xmlns:xlink="http://www.w3.org/1999/xlink" x="0px" y="0px"
	 viewBox="0 0 512 512" style="enable-background:new 0 0 512 512;" xml:space="preserve">
<g>
	<g>
		<path d="M378.148,4.348c-1.522-2.741-4.462-4.421-7.572-4.345c-3.134,0.069-5.973,1.867-7.374,4.672
			c-5.387,10.787-12.459,20.546-21.022,29.015c-5.885,5.833-12.465,11.013-19.558,15.396
			c-17.422,10.761-37.437,16.449-57.882,16.449h-11.121V55.433c0-4.666-3.783-8.449-8.449-8.449h-8.289V24.306
			c0-4.666-3.783-8.449-8.449-8.449h-38.764c-4.666,0-8.449,3.783-8.449,8.449v22.678h-8.287c-4.666,0-8.449,3.783-8.449,8.449
			v28.842l-65.806,32.903c-2.863,1.432-4.671,4.356-4.671,7.557s1.808,6.126,4.671,7.557l65.806,32.903v24.013
			c0,4.666,3.783,8.449,8.449,8.449h8.287v32.738c0,4.666,3.783,8.449,8.449,8.449s8.449-3.783,8.449-8.449v-32.738h21.865v297.446
			h-21.865V256.304c0-4.666-3.783-8.449-8.449-8.449s-8.449,3.783-8.449,8.449v247.247c0,4.666,3.783,8.449,8.449,8.449h38.764
			c4.666,0,8.449-3.783,8.449-8.449V197.656h8.289c4.666,0,8.449-3.783,8.449-8.449v-0.017c40.902,2.869,77.64,26.441,97.249,62.966
			c9.277,17.283,14.181,36.859,14.181,56.613v2.726c0,4.101,2.945,7.61,6.984,8.321c0.493,0.087,0.985,0.13,1.471,0.13
			c3.497,0,6.705-2.18,7.935-5.564l17.485-48.103C430.279,180.051,422.706,84.581,378.148,4.348z M164.482,146.302l-43.135-21.568
			l43.135-21.567V146.302z M198.117,32.754h21.865v14.228h-21.865V32.754z M236.722,180.758H181.38V63.882h55.341V180.758z
			 M383.043,260.505l-5.3,14.582c-2.433-9.607-5.908-18.934-10.359-27.779c13.23-45.048,16.283-93.244,8.806-139.624
			c-0.742-4.607-5.075-7.742-9.686-6.997c-4.608,0.742-7.739,5.08-6.997,9.686c6.249,38.765,4.712,78.867-4.348,117.077
			c-23.93-32.376-60.989-52.695-101.538-55.186V82.431h11.121c23.583,0,46.669-6.56,66.762-18.97
			c4.601-2.842,9.007-5.985,13.197-9.38c2.693,7.279,5.115,14.675,7.225,22.104c1.057,3.718,4.441,6.143,8.124,6.143
			c0.765,0,1.541-0.105,2.313-0.323c4.489-1.275,7.095-5.947,5.82-10.436c-2.873-10.11-6.286-20.163-10.162-29.964
			c4.53-4.899,8.661-10.132,12.354-15.672C406.263,98.976,410.999,183.622,383.043,260.505z"/>
	</g>
</g>
<g>
</g>
<g>
</g>
<g>
</g>
<g>
</g>
<g>
</g>
<g>
</g>
<g>
</g>
<g>
</g>
<g>
</g>
<g>
</g>
<g>
</g>
<g>
</g>
<g>
</g>
<g>
</g>
<g>
</g>
</svg>
