<?xml version="1.0" encoding="iso-8859-1"?>
<!-- Generator: Adobe Illustrator 19.0.0, SVG Export Plug-In . SVG Version: 6.00 Build 0)  -->
<svg version="1.1" id="Layer_1" xmlns="http://www.w3.org/2000/svg" xmlns:xlink="http://www.w3.org/1999/xlink" x="0px" y="0px"
	 viewBox="0 0 511.999 511.999" style="enable-background:new 0 0 511.999 511.999;" xml:space="preserve">
<g>
	<g>
		<path d="M437.052,75.026C370.558,8.531,273.194-16.147,182.957,10.623c-4.768,1.414-7.486,6.426-6.073,11.194
			c1.414,4.768,6.425,7.487,11.194,6.072C271.979,3,362.498,25.942,424.315,87.76c92.809,92.81,92.809,243.822,0,336.631
			c-92.81,92.81-243.822,92.809-336.632,0c-92.809-92.81-92.809-243.822,0-336.631c20.314-20.314,43.749-36.592,69.652-48.381
			c4.526-2.06,6.526-7.4,4.465-11.926c-2.06-4.526-7.401-6.527-11.926-4.465c-27.873,12.686-53.082,30.194-74.927,52.039
			c-99.832,99.832-99.832,262.269,0,362.1c49.916,49.916,115.483,74.874,181.049,74.874c65.567,0,131.135-24.958,181.051-74.874
			C536.883,337.294,536.883,174.856,437.052,75.026z"/>
	</g>
</g>
<g>
	<g>
		<path d="M294.406,217.671c-13.872-13.87-34.23-19.189-53.132-13.881c-4.788,1.345-7.58,6.317-6.235,11.105
			c1.345,4.788,6.319,7.578,11.105,6.235c12.643-3.552,26.255,0.005,35.527,9.276c14.154,14.154,14.154,37.184,0,51.339
			c-14.154,14.154-37.185,14.153-51.339,0c-12.142-12.142-14.102-31.336-4.659-45.637c2.74-4.151,1.598-9.736-2.553-12.476
			c-4.148-2.74-9.736-1.597-12.476,2.553c-14.135,21.409-11.212,50.131,6.953,68.295c10.589,10.587,24.496,15.881,38.404,15.881
			s27.817-5.294,38.404-15.882C315.582,273.303,315.582,238.847,294.406,217.671z"/>
	</g>
</g>
<g>
	<g>
		<path d="M419.324,125.363c-4.854-6.039-10.045-11.824-15.42-17.186c-5.456-5.456-11.245-10.646-17.205-15.425
			c-36.846-29.562-83.261-45.844-130.697-45.844c-47.434,0-93.852,16.281-130.701,45.842c-5.962,4.777-11.752,9.968-17.208,15.425
			c-5.427,5.427-10.614,11.209-15.425,17.195c-29.556,36.852-45.834,83.27-45.834,130.706s16.277,93.854,45.84,130.713
			c4.839,6.019,10.027,11.806,15.419,17.199c5.458,5.459,11.249,10.649,17.208,15.426c36.858,29.556,83.278,45.834,130.71,45.832
			c47.434-0.001,93.851-16.283,130.699-45.843c5.96-4.777,11.746-9.964,17.196-15.415c5.457-5.458,10.649-11.248,15.425-17.205
			c29.562-36.852,45.843-83.271,45.843-130.706S448.893,162.222,419.324,125.363z M391.177,120.917
			c3.053,3.046,6.03,6.255,8.918,9.562l-69.432,69.432c-2.625-3.483-5.491-6.796-8.594-9.899c-3.111-3.111-6.426-5.98-9.905-8.601
			l69.429-69.429C384.875,114.849,388.087,117.828,391.177,120.917z M321.432,293.607c-3.293,5.747-7.364,11.062-12.098,15.796
			c-4.734,4.733-10.048,8.804-15.796,12.098l-0.011,0.006c-23.143,13.307-51.903,13.307-75.068-0.007
			c-5.746-3.293-11.06-7.364-15.796-12.098c-4.735-4.735-8.804-10.049-12.104-15.807c-13.308-23.145-13.308-51.899,0.006-75.056
			c3.292-5.745,7.362-11.059,12.098-15.795c4.743-4.741,10.06-8.816,15.813-12.113c11.572-6.643,24.539-9.964,37.511-9.964
			c12.983,0,25.969,3.329,37.55,9.987c5.733,3.274,11.047,7.342,15.797,12.092c4.734,4.734,8.804,10.048,12.104,15.807
			C334.746,241.697,334.746,270.452,321.432,293.607z M256.004,64.916c39.971,0,79.136,12.652,111.389,35.795l-71.08,71.08
			c-25.405-12.152-55.212-12.154-80.626-0.01l-71.081-71.07C176.863,77.57,216.032,64.916,256.004,64.916z M120.829,120.91
			c3.084-3.087,6.295-6.063,9.578-8.929l69.435,69.425c-3.487,2.627-6.803,5.498-9.911,8.606c-3.105,3.105-5.972,6.417-8.595,9.899
			l-69.43-69.43C114.778,127.193,117.755,123.985,120.829,120.91z M100.63,367.473c-23.135-32.257-35.786-71.427-35.786-111.399
			c0-39.974,12.652-79.148,35.788-111.4l71.078,71.078c-12.165,25.418-12.164,55.235-0.001,80.643L100.63,367.473z M120.826,391.251
			c-3.06-3.062-6.038-6.276-8.924-9.581l69.432-69.432c2.623,3.483,5.491,6.796,8.594,9.899c3.106,3.106,6.421,5.974,9.907,8.6
			l-69.437,69.437C127.119,397.311,123.911,394.336,120.826,391.251z M256.01,447.234c-39.971,0.001-79.146-12.651-111.409-35.791
			l71.081-71.081c12.709,6.079,26.514,9.127,40.323,9.127c13.806,0,27.609-3.048,40.314-9.126l71.086,71.076
			C335.148,434.578,295.979,447.233,256.01,447.234z M411.369,367.474l-21.559-21.559c-3.517-3.517-9.219-3.517-12.734,0
			c-3.517,3.517-3.517,9.217,0,12.734l23.024,23.024c-2.866,3.281-5.842,6.492-8.928,9.578c-3.081,3.081-6.288,6.054-9.566,8.917
			l-69.441-69.431c3.485-2.626,6.8-5.494,9.905-8.599c3.104-3.104,5.971-6.417,8.594-9.899l27.201,27.201
			c1.758,1.759,4.063,2.638,6.367,2.638s4.609-0.879,6.367-2.638c3.517-3.517,3.517-9.217,0-12.734l-30.31-30.31
			c12.164-25.418,12.163-55.233,0-80.642l71.078-71.078c23.141,32.257,35.796,71.428,35.796,111.4
			C447.164,296.046,434.51,335.216,411.369,367.474z"/>
	</g>
</g>
<g>
	<g>
		<circle cx="399.673" cy="256.074" r="9.005"/>
	</g>
</g>
<g>
	<g>
		<circle cx="112.334" cy="256.074" r="9.005"/>
	</g>
</g>
<g>
	<g>
		<circle cx="256.004" cy="112.404" r="9.005"/>
	</g>
</g>
<g>
	<g>
		<circle cx="256.004" cy="399.744" r="9.005"/>
	</g>
</g>
<g>
</g>
<g>
</g>
<g>
</g>
<g>
</g>
<g>
</g>
<g>
</g>
<g>
</g>
<g>
</g>
<g>
</g>
<g>
</g>
<g>
</g>
<g>
</g>
<g>
</g>
<g>
</g>
<g>
</g>
</svg>
